# xmcd
#
# Track frame offsets: 
#        150
#        13150
#        26932
#        39860
#        51345
#        62950
#        75545
#        91980
#        107462
#        125075
#        136840
#        149897
#        166595
#        180845
#        203270
#        216780
#        228037
#        241680
#
# Disc length: 3379 seconds
#
# Revision: 2
# Processed by: cddbd v1.5.2PL0 Copyright (c) Steve Scherf et al.
# Submitted via: ExactAudioCopyFreeDBPlugin 1.0
#
DISCID=e60d3112
DTITLE=Tina Turner - The Collected Recordings:  Sixties to Nineties [b
DTITLE=ox set]
DYEAR=1994
DGENRE=Soul
TTITLE0=A Fool in Love (as "Ike and Tina Turner")
TTITLE1=It's Gonna Work Out Fine (as "Ike and Tina Turner")
TTITLE2=I Idolize You (as "Ike and Tina Turner")
TTITLE3=Poor Fool (as "Ike and Tina Turner")
TTITLE4=A Letter from Tina (as "Ike and Tina Turner")
TTITLE5=Finger Poppin' (as "Ike and Tina Turner")
TTITLE6=River Deep, Mountain High (as "Ike and Tina Turner")
TTITLE7=Crazy 'Bout You Baby (as "Ike and Tina Turner")
TTITLE8=I've Been Loving You Too Long (as "Ike and Tina Turner")
TTITLE9=Bold Soul Sister (as "Ike and Tina Turner")
TTITLE10=I Want to Take You Higher (as "Ike and Tina Turner")
TTITLE11=Come Together (as "Ike and Tina Turner")
TTITLE12=Honky Tonk Women (as "Ike and Tina Turner")
TTITLE13=Proud Mary (as "Ike and Tina Turner")
TTITLE14=Nutbush City Limits (as "Ike and Tina Turner")
TTITLE15=Sexy Ida (Part I) (as "Ike and Tina Turner")
TTITLE16=Sexy Ida (Part II) (as "Ike and Tina Turner")
TTITLE17=It Ain't Right (Lovin' to Be Lovin') (as "Ike and Tina Turner")
EXTD=YEAR: 1994
EXTT0=
EXTT1=
EXTT2=
EXTT3=
EXTT4=
EXTT5=
EXTT6=
EXTT7=
EXTT8=
EXTT9=
EXTT10=
EXTT11=
EXTT12=
EXTT13=
EXTT14=
EXTT15=
EXTT16=
EXTT17=
PLAYORDER=
